<?xml version="1.0" encoding="utf-8"?>
<!-- Generator: Adobe Illustrator 24.0.1, SVG Export Plug-In . SVG Version: 6.00 Build 0)  -->
<svg version="1.1" xmlns="http://www.w3.org/2000/svg" xmlns:xlink="http://www.w3.org/1999/xlink" x="0px" y="0px"
	 viewBox="0 0 1848 271" style="enable-background:new 0 0 1848 271;" xml:space="preserve">
<style type="text/css">
	.st0{fill:#FFFFFF;}
	.st1{fill:#FFE73F;}
	.st2{fill:#EC1B2E;}
</style>
<g id="Слой_2">
</g>
<g id="Слой_1">
	<g>
		<path class="st0" d="M148.07,29.05C163,35.69,174.44,45.2,182.4,57.57c7.96,12.38,11.94,27.09,11.94,44.11
			c0,16.8-3.98,31.45-11.94,43.94c-7.96,12.49-19.4,22.05-34.32,28.69c-14.92,6.63-32.45,9.95-52.56,9.95h-52.4v66.99H0V19.11h95.51
			C115.62,19.11,133.15,22.42,148.07,29.05z M136.3,135.84c9.73-7.96,14.59-19.34,14.59-34.16c0-14.81-4.87-26.2-14.59-34.16
			c-9.73-7.96-23.99-11.94-42.78-11.94H43.11v92.19h50.41C112.31,147.78,126.57,143.8,136.3,135.84z"/>
		<path class="st0" d="M379.8,91.73c13.48,13.05,20.23,32.39,20.23,58.04v101.48h-41.45v-96.17c0-15.47-3.65-27.14-10.94-34.99
			c-7.3-7.84-17.69-11.77-31.17-11.77c-15.26,0-27.31,4.59-36.15,13.76c-8.84,9.18-13.26,22.38-13.26,39.63v89.54h-41.45V19.11
			h41.45v75.61c6.85-7.3,15.31-12.88,25.37-16.75c10.06-3.86,21.28-5.8,33.66-5.8C348.4,72.17,366.31,78.69,379.8,91.73z"/>
		<path class="st0" d="M487.24,241.96c-14.37-7.74-25.59-18.52-33.66-32.33c-8.07-13.81-12.1-29.46-12.1-46.93
			c0-17.46,4.03-33.05,12.1-46.76c8.07-13.71,19.29-24.43,33.66-32.17c14.37-7.74,30.51-11.61,48.42-11.61
			c18.12,0,34.38,3.87,48.75,11.61c14.37,7.74,25.59,18.46,33.66,32.17c8.07,13.71,12.11,29.3,12.11,46.76
			c0,17.47-4.04,33.11-12.11,46.93c-8.07,13.82-19.29,24.6-33.66,32.33c-14.37,7.74-30.63,11.61-48.75,11.61
			C517.75,253.57,501.61,249.7,487.24,241.96z M573.46,202.83c9.95-10.17,14.92-23.55,14.92-40.13c0-16.58-4.98-29.96-14.92-40.13
			c-9.95-10.17-22.55-15.26-37.81-15.26s-27.81,5.09-37.64,15.26c-9.84,10.17-14.76,23.54-14.76,40.13
			c0,16.58,4.92,29.96,14.76,40.13c9.83,10.17,22.38,15.26,37.64,15.26S563.51,213,573.46,202.83z"/>
		<path class="st0" d="M778.08,241.63c-4.87,3.98-10.78,6.96-17.75,8.95c-6.96,1.99-14.31,2.99-22.05,2.99
			c-19.46,0-34.49-5.08-45.1-15.26c-10.61-10.17-15.92-24.98-15.92-44.44v-85.23h-29.18V75.48h29.18V19.11h41.45v56.38h47.43v33.16
			h-47.43v84.23c0,8.62,2.1,15.2,6.3,19.73c4.2,4.54,10.28,6.8,18.24,6.8c9.28,0,17.02-2.43,23.21-7.3L778.08,241.63z"/>
		<path class="st0" d="M839.1,241.96c-14.37-7.74-25.59-18.52-33.66-32.33c-8.07-13.81-12.1-29.46-12.1-46.93
			c0-17.46,4.03-33.05,12.1-46.76c8.07-13.71,19.29-24.43,33.66-32.17c14.37-7.74,30.51-11.61,48.42-11.61
			c18.12,0,34.38,3.87,48.75,11.61c14.37,7.74,25.59,18.46,33.66,32.17c8.07,13.71,12.11,29.3,12.11,46.76
			c0,17.47-4.04,33.11-12.11,46.93c-8.07,13.82-19.29,24.6-33.66,32.33c-14.37,7.74-30.63,11.61-48.75,11.61
			C869.61,253.57,853.47,249.7,839.1,241.96z M925.32,202.83c9.95-10.17,14.92-23.55,14.92-40.13c0-16.58-4.98-29.96-14.92-40.13
			c-9.95-10.17-22.55-15.26-37.81-15.26c-15.26,0-27.81,5.09-37.64,15.26c-9.84,10.17-14.76,23.54-14.76,40.13
			c0,16.58,4.92,29.96,14.76,40.13c9.83,10.17,22.38,15.26,37.64,15.26C902.77,218.08,915.37,213,925.32,202.83z"/>
		<path class="st1" d="M1063.27,241.24c-16.83-9.42-30.05-22.5-39.68-39.21c-9.63-16.72-14.45-35.62-14.45-56.7
			c0-21.08,4.82-39.98,14.45-56.7s22.85-29.79,39.68-39.21s35.75-14.14,56.75-14.14c17.7,0,33.7,3.24,48,9.73
			c14.3,6.49,26.3,15.81,36.03,27.97l-30.35,29.18c-13.81-16.62-30.93-24.93-51.35-24.93c-12.65,0-23.93,2.89-33.85,8.66
			s-17.65,13.83-23.2,24.17c-5.54,10.34-8.31,22.09-8.31,35.26c0,13.18,2.77,24.93,8.31,35.26c5.55,10.34,13.28,18.39,23.2,24.17
			c9.92,5.78,21.2,8.66,33.85,8.66c20.42,0,37.54-8.41,51.35-25.23l30.35,29.18c-9.73,12.36-21.79,21.79-36.18,28.27
			c-14.4,6.48-30.44,9.73-48.14,9.73C1098.92,255.37,1080.1,250.66,1063.27,241.24z"/>
		<path class="st1" d="M1365.3,206.13h-94.83l-18.09,45.6h-48.43l91.04-212.8h46.68l91.33,212.8h-49.6L1365.3,206.13z
			 M1350.42,168.73l-32.39-81.47l-32.39,81.47H1350.42z"/>
		<path class="st1" d="M1478.47,248.53c-15.08-4.56-27.19-10.49-36.33-17.78l16.05-37.09c8.75,6.69,19.15,12.06,31.22,16.11
			c12.06,4.06,24.12,6.08,36.18,6.08c13.42,0,23.34-2.08,29.76-6.23c6.42-4.15,9.63-9.68,9.63-16.57c0-5.06-1.9-9.27-5.69-12.62
			c-3.79-3.34-8.66-6.03-14.59-8.06c-5.94-2.02-13.96-4.26-24.07-6.69c-15.56-3.85-28.3-7.7-38.22-11.55
			c-9.92-3.85-18.43-10.03-25.53-18.54c-7.1-8.51-10.65-19.86-10.65-34.05c0-12.36,3.21-23.56,9.63-33.59s16.09-17.98,29.03-23.86
			c12.94-5.88,28.74-8.82,47.41-8.82c13.03,0,25.77,1.62,38.22,4.86c12.45,3.25,23.34,7.9,32.68,13.98l-14.59,37.39
			c-18.87-11.14-37.74-16.72-56.6-16.72c-13.23,0-23.01,2.23-29.33,6.69c-6.32,4.46-9.48,10.34-9.48,17.63
			c0,7.3,3.64,12.72,10.94,16.26c7.3,3.55,18.43,7.04,33.41,10.49c15.56,3.85,28.3,7.7,38.22,11.55
			c9.92,3.85,18.43,9.93,25.53,18.24c7.1,8.31,10.65,19.56,10.65,33.75c0,12.16-3.26,23.26-9.77,33.29
			c-6.52,10.03-16.29,17.99-29.32,23.86c-13.04,5.88-28.89,8.82-47.56,8.82C1509.15,255.37,1493.55,253.09,1478.47,248.53z"/>
		<path class="st1" d="M1780.31,206.13h-94.83l-18.09,45.6h-48.43l91.04-212.8h46.68l91.33,212.8h-49.6L1780.31,206.13z
			 M1765.43,168.73l-32.39-81.47l-32.39,81.47H1765.43z"/>
		<g>
			<circle class="st2" cx="535.82" cy="29.98" r="8.9"/>
			<g>
				<path class="st0" d="M520.45,59.69h-16.57c-5.66,0-10.26-4.6-10.26-10.26V10.52c0-5.66,4.6-10.26,10.26-10.26h16.57v8.49h-16.57
					c-0.98,0-1.77,0.79-1.77,1.77v38.91c0,0.98,0.79,1.77,1.77,1.77h16.57V59.69z"/>
				<path class="st0" d="M567.77,59.69H551.2V51.2h16.57c0.98,0,1.77-0.79,1.77-1.77V10.52c0-0.98-0.79-1.77-1.77-1.77H551.2V0.26
					h16.57c5.66,0,10.26,4.6,10.26,10.26v38.91C578.03,55.09,573.42,59.69,567.77,59.69z"/>
			</g>
		</g>
	</g>
</g>
</svg>
